<?xml version="1.0" encoding="UTF-8" standalone="no"?>
<!DOCTYPE svg PUBLIC "-//W3C//DTD SVG 1.1//EN"
 "http://www.w3.org/Graphics/SVG/1.1/DTD/svg11.dtd">
<!-- Generated by graphviz version 2.28.0 (20121221.0049)
 -->
<!-- Title: G Pages: 1 -->
<svg width="968pt" height="1985pt"
 viewBox="0.00 0.00 968.00 1985.00" xmlns="http://www.w3.org/2000/svg" xmlns:xlink="http://www.w3.org/1999/xlink">
<g id="graph1" class="graph" transform="scale(1 1) rotate(0) translate(4 1981)">
<title>G</title>
<polygon fill="white" stroke="white" points="-4,5 -4,-1981 965,-1981 965,5 -4,5"/>
<!-- c0 -->
<g id="node1" class="node"><title>c0</title>
<a xlink:href="null" xlink:title="&lt;TABLE&gt;">
<polygon fill="none" stroke="black" points="62,-99 62,-130 369,-130 369,-99 62,-99"/>
<text text-anchor="start" x="185" y="-118.5" font-family="Helvetica,sans-Serif" font-size="10.00"> «interface» </text>
<text text-anchor="start" x="156.5" y="-106" font-family="Helvetica,sans-Serif" font-size="10.00"> JUnitBenchmarkService </text>
<polygon fill="none" stroke="black" points="62,-81 62,-99 369,-99 369,-81 62,-81"/>
<text text-anchor="start" x="66" y="-88" font-family="Helvetica,sans-Serif" font-size="10.00"> &#160;</text>
<polygon fill="none" stroke="black" points="62,-15 62,-81 369,-81 369,-15 62,-15"/>
<text text-anchor="start" x="66" y="-70" font-family="Helvetica,sans-Serif" font-size="10.00"> + enqueueBenchmark(path : String, classname : String) : int </text>
<text text-anchor="start" x="66" y="-58" font-family="Helvetica,sans-Serif" font-size="10.00"> + isDone(token : int) : boolean </text>
<text text-anchor="start" x="66" y="-46" font-family="Helvetica,sans-Serif" font-size="10.00"> + getResult(token : int) : BenchmarkResult </text>
<text text-anchor="start" x="66" y="-34" font-family="Helvetica,sans-Serif" font-size="10.00"> + getCallbacks() : List&lt;ProgressCallback&gt; </text>
<text text-anchor="start" x="66" y="-22" font-family="Helvetica,sans-Serif" font-size="10.00"> + setCallbacks(callbacks : List&lt;ProgressCallback&gt;) </text>
</a>
</g>
<!-- c3 -->
<g id="node4" class="node"><title>c3</title>
<a xlink:href="null" xlink:title="&lt;TABLE&gt;">
<polygon fill="none" stroke="black" points="560,-123 560,-142 867,-142 867,-123 560,-123"/>
<text text-anchor="start" x="644" y="-130.5" font-family="Helvetica,sans-Serif" font-size="10.00"> JUnitBenchmarkServiceImpl </text>
<polygon fill="none" stroke="black" points="560,-81 560,-123 867,-123 867,-81 560,-81"/>
<text text-anchor="start" x="564" y="-112" font-family="Helvetica,sans-Serif" font-size="10.00"> &#45; executor : ExecutorService </text>
<text text-anchor="start" x="564" y="-100" font-family="Helvetica,sans-Serif" font-size="10.00"> &#45; tasks : Map&lt;Integer, Future&lt;BenchmarkResult&gt;&gt; </text>
<text text-anchor="start" x="564" y="-88" font-family="Helvetica,sans-Serif" font-size="10.00"> &#45; callbacks : List&lt;ProgressCallback&gt; </text>
<polygon fill="none" stroke="black" points="560,-3 560,-81 867,-81 867,-3 560,-3"/>
<text text-anchor="start" x="564" y="-70" font-family="Helvetica,sans-Serif" font-size="10.00"> + JUnitBenchmarkServiceImpl() </text>
<text text-anchor="start" x="564" y="-58" font-family="Helvetica,sans-Serif" font-size="10.00"> + enqueueBenchmark(path : String, classname : String) : int </text>
<text text-anchor="start" x="564" y="-46" font-family="Helvetica,sans-Serif" font-size="10.00"> + getResult(token : int) : BenchmarkResult </text>
<text text-anchor="start" x="564" y="-34" font-family="Helvetica,sans-Serif" font-size="10.00"> + isDone(token : int) : boolean </text>
<text text-anchor="start" x="564" y="-22" font-family="Helvetica,sans-Serif" font-size="10.00"> + getCallbacks() : List&lt;ProgressCallback&gt; </text>
<text text-anchor="start" x="564" y="-10" font-family="Helvetica,sans-Serif" font-size="10.00"> + setCallbacks(callbacks : List&lt;ProgressCallback&gt;) </text>
</a>
</g>
<!-- c0&#45;&gt;c3 -->
<g id="edge6" class="edge"><title>c0:p&#45;&gt;c3:p</title>
<path fill="none" stroke="black" stroke-dasharray="5,2" d="M378.552,-73C436.757,-73 502.115,-73 559.444,-73"/>
<polygon fill="none" stroke="black" points="378.525,-69.5001 368.525,-73 378.525,-76.5001 378.525,-69.5001"/>
</g>
<!-- c1 -->
<g id="node2" class="node"><title>c1</title>
<a xlink:href="null" xlink:title="&lt;TABLE&gt;">
<polygon fill="none" stroke="black" points="567,-285 567,-304 860,-304 860,-285 567,-285"/>
<text text-anchor="start" x="638.5" y="-292.5" font-family="Helvetica,sans-Serif" font-size="10.00"> BenchmarkNotDoneException </text>
<polygon fill="none" stroke="black" points="567,-267 567,-285 860,-285 860,-267 567,-267"/>
<text text-anchor="start" x="571" y="-274" font-family="Helvetica,sans-Serif" font-size="10.00"> &#160;</text>
<polygon fill="none" stroke="black" points="567,-249 567,-267 860,-267 860,-249 567,-249"/>
<text text-anchor="start" x="571" y="-256" font-family="Helvetica,sans-Serif" font-size="10.00"> + JUnitBenchmarkService.BenchmarkNotDoneException() </text>
</a>
</g>
<!-- c2 -->
<g id="node3" class="node"><title>c2</title>
<a xlink:href="null" xlink:title="&lt;TABLE&gt;">
<polygon fill="none" stroke="black" points="587,-204 587,-223 839,-223 839,-204 587,-204"/>
<text text-anchor="start" x="658.5" y="-211.5" font-family="Helvetica,sans-Serif" font-size="10.00"> InvalidTokenException </text>
<polygon fill="none" stroke="black" points="587,-186 587,-204 839,-204 839,-186 587,-186"/>
<text text-anchor="start" x="591" y="-193" font-family="Helvetica,sans-Serif" font-size="10.00"> &#160;</text>
<polygon fill="none" stroke="black" points="587,-168 587,-186 839,-186 839,-168 587,-168"/>
<text text-anchor="start" x="591" y="-175" font-family="Helvetica,sans-Serif" font-size="10.00"> + JUnitBenchmarkService.InvalidTokenException() </text>
</a>
</g>
<!-- c4 -->
<g id="node5" class="node"><title>c4</title>
<a xlink:href="null" xlink:title="&lt;TABLE&gt;">
<polygon fill="none" stroke="black" points="474,-450 474,-469 952,-469 952,-450 474,-450"/>
<text text-anchor="start" x="672.5" y="-457.5" font-family="Helvetica,sans-Serif" font-size="10.00"> BenchmarkTask </text>
<polygon fill="none" stroke="black" points="474,-384 474,-450 952,-450 952,-384 474,-384"/>
<text text-anchor="start" x="478" y="-439" font-family="Helvetica,sans-Serif" font-size="10.00"> &#45; path : String </text>
<text text-anchor="start" x="478" y="-427" font-family="Helvetica,sans-Serif" font-size="10.00"> &#45; classname : String </text>
<text text-anchor="start" x="478" y="-415" font-family="Helvetica,sans-Serif" font-size="10.00"> &#45; result : BenchmarkResult </text>
<text text-anchor="start" x="478" y="-403" font-family="Helvetica,sans-Serif" font-size="10.00"> &#45; progresscallbacks : List&lt;ProgressCallback&gt; </text>
<text text-anchor="start" x="478" y="-391" font-family="Helvetica,sans-Serif" font-size="10.00"> &#45; localContext : ThreadLocal&lt;BenchmarkTask&gt; </text>
<polygon fill="none" stroke="black" points="474,-330 474,-384 952,-384 952,-330 474,-330"/>
<text text-anchor="start" x="478" y="-373" font-family="Helvetica,sans-Serif" font-size="10.00"> + BenchmarkTask(path : String, classname : String, progresscallbacks : List&lt;ProgressCallback&gt;) </text>
<text text-anchor="start" x="478" y="-361" font-family="Helvetica,sans-Serif" font-size="10.00"> + call() : BenchmarkResult </text>
<text text-anchor="start" x="478" y="-349" font-family="Helvetica,sans-Serif" font-size="10.00"> + getResult() : BenchmarkResult </text>
<text text-anchor="start" x="478" y="-337" font-family="Helvetica,sans-Serif" font-size="10.00"> + getContext() : BenchmarkTask </text>
</a>
</g>
<!-- c5 -->
<g id="node6" class="node"><title>c5</title>
<a xlink:href="null" xlink:title="&lt;TABLE&gt;">
<polygon fill="none" stroke="black" points="153,-507 153,-526 277,-526 277,-507 153,-507"/>
<text text-anchor="start" x="198" y="-514.5" font-family="Helvetica,sans-Serif" font-size="10.00"> Client </text>
<polygon fill="none" stroke="black" points="153,-489 153,-507 277,-507 277,-489 153,-489"/>
<text text-anchor="start" x="157" y="-496" font-family="Helvetica,sans-Serif" font-size="10.00"> &#160;</text>
<polygon fill="none" stroke="black" points="153,-459 153,-489 277,-489 277,-459 153,-459"/>
<text text-anchor="start" x="157" y="-478" font-family="Helvetica,sans-Serif" font-size="10.00"> + Client() </text>
<text text-anchor="start" x="157" y="-466" font-family="Helvetica,sans-Serif" font-size="10.00"> + main(args : String[]) </text>
</a>
</g>
<!-- c6 -->
<g id="node7" class="node"><title>c6</title>
<a xlink:href="null" xlink:title="&lt;TABLE&gt;">
<polygon fill="none" stroke="black" points="564,-630 564,-649 863,-649 863,-630 564,-630"/>
<text text-anchor="start" x="660" y="-637.5" font-family="Helvetica,sans-Serif" font-size="10.00"> RSSProgressCallback </text>
<polygon fill="none" stroke="black" points="564,-612 564,-630 863,-630 863,-612 564,-612"/>
<text text-anchor="start" x="568" y="-619" font-family="Helvetica,sans-Serif" font-size="10.00"> &#45; feed : SyndFeed </text>
<polygon fill="none" stroke="black" points="564,-558 564,-612 863,-612 863,-558 564,-558"/>
<text text-anchor="start" x="568" y="-601" font-family="Helvetica,sans-Serif" font-size="10.00"> + RSSProgressCallback() </text>
<text text-anchor="start" x="568" y="-589" font-family="Helvetica,sans-Serif" font-size="10.00"> # benchmarkStartedImpl(path : String, classname : String) </text>
<text text-anchor="start" x="568" y="-577" font-family="Helvetica,sans-Serif" font-size="10.00"> # benchmarkFinishedInternal(result : BenchmarkResult) </text>
<text text-anchor="start" x="568" y="-565" font-family="Helvetica,sans-Serif" font-size="10.00"> + getFeed() : SyndFeed </text>
</a>
</g>
<!-- c7 -->
<g id="node8" class="node"><title>c7</title>
<a xlink:href="null" xlink:title="&lt;TABLE&gt;">
<polygon fill="none" stroke="black" points="146,-729 146,-748 285,-748 285,-729 146,-729"/>
<text text-anchor="start" x="160" y="-736.5" font-family="Helvetica,sans-Serif" font-size="10.00"> WebServiceConsumer </text>
<polygon fill="none" stroke="black" points="146,-711 146,-729 285,-729 285,-711 146,-711"/>
<text text-anchor="start" x="150" y="-718" font-family="Helvetica,sans-Serif" font-size="10.00"> &#160;</text>
<polygon fill="none" stroke="black" points="146,-681 146,-711 285,-711 285,-681 146,-681"/>
<text text-anchor="start" x="150" y="-700" font-family="Helvetica,sans-Serif" font-size="10.00"> + WebServiceConsumer() </text>
<text text-anchor="start" x="150" y="-688" font-family="Helvetica,sans-Serif" font-size="10.00"> + accept(result : Result) </text>
</a>
</g>
<!-- c8 -->
<g id="node9" class="node"><title>c8</title>
<a xlink:href="null" xlink:title="&lt;TABLE&gt;">
<polygon fill="none" stroke="black" points="66,-636 66,-655 364,-655 364,-636 66,-636"/>
<text text-anchor="start" x="171" y="-643.5" font-family="Helvetica,sans-Serif" font-style="oblique" font-size="10.00"> ProgressCallback </text>
<polygon fill="none" stroke="black" points="66,-618 66,-636 364,-636 364,-618 66,-618"/>
<text text-anchor="start" x="70" y="-625" font-family="Helvetica,sans-Serif" font-size="10.00"> &#160;</text>
<polygon fill="none" stroke="black" points="66,-552 66,-618 364,-618 364,-552 66,-552"/>
<text text-anchor="start" x="70" y="-607" font-family="Helvetica,sans-Serif" font-size="10.00"> + ProgressCallback() </text>
<text text-anchor="start" x="70" y="-595" font-family="Helvetica,sans-Serif" font-style="oblique" font-size="10.00"> # benchmarkStartedImpl(path : String, classname : String) </text>
<text text-anchor="start" x="70" y="-583" font-family="Helvetica,sans-Serif" font-style="oblique" font-size="10.00"> # benchmarkFinishedInternal(result : BenchmarkResult) </text>
<text text-anchor="start" x="70" y="-571" font-family="Helvetica,sans-Serif" font-size="10.00"> + benchmarkStarted(path : String, classname : String) </text>
<text text-anchor="start" x="70" y="-559" font-family="Helvetica,sans-Serif" font-size="10.00"> + benchmarkFinished(result : BenchmarkResult) </text>
</a>
</g>
<!-- c8&#45;&gt;c6 -->
<g id="edge10" class="edge"><title>c8:p&#45;&gt;c6:p</title>
<path fill="none" stroke="black" d="M374.185,-604C434.785,-604 503.656,-604 563.334,-604"/>
<polygon fill="none" stroke="black" points="374.145,-600.5 364.145,-604 374.144,-607.5 374.145,-600.5"/>
</g>
<!-- c9 -->
<g id="node10" class="node"><title>c9</title>
<a xlink:href="null" xlink:title="&lt;TABLE&gt;">
<polygon fill="none" stroke="black" points="539,-870 539,-889 888,-889 888,-870 539,-870"/>
<text text-anchor="start" x="634.5" y="-877.5" font-family="Helvetica,sans-Serif" font-size="10.00"> JUnitBenchmarkWebServiceImpl </text>
<polygon fill="none" stroke="black" points="539,-852 539,-870 888,-870 888,-852 539,-852"/>
<text text-anchor="start" x="543" y="-859" font-family="Helvetica,sans-Serif" font-size="10.00"> &#45; benchmarkService : JUnitBenchmarkService </text>
<polygon fill="none" stroke="black" points="539,-762 539,-852 888,-852 888,-762 539,-762"/>
<text text-anchor="start" x="543" y="-841" font-family="Helvetica,sans-Serif" font-size="10.00"> + JUnitBenchmarkWebServiceImpl() </text>
<text text-anchor="start" x="543" y="-829" font-family="Helvetica,sans-Serif" font-size="10.00"> + enqueueBenchmark(path : String, classname : String) : int </text>
<text text-anchor="start" x="543" y="-817" font-family="Helvetica,sans-Serif" font-size="10.00"> + isDone(token : int) : boolean </text>
<text text-anchor="start" x="543" y="-805" font-family="Helvetica,sans-Serif" font-size="10.00"> + getResult(token : int) : BenchmarkResult </text>
<text text-anchor="start" x="543" y="-793" font-family="Helvetica,sans-Serif" font-size="10.00"> + getResultAsXML(token : int) : String </text>
<text text-anchor="start" x="543" y="-781" font-family="Helvetica,sans-Serif" font-size="10.00"> + setBenchmarkService(benchmarkService : JUnitBenchmarkService) </text>
<text text-anchor="start" x="543" y="-769" font-family="Helvetica,sans-Serif" font-size="10.00"> + getBenchmarkService() : JUnitBenchmarkService </text>
</a>
</g>
<!-- c10 -->
<g id="node11" class="node"><title>c10</title>
<a xlink:href="null" xlink:title="&lt;TABLE&gt;">
<polygon fill="none" stroke="black" points="153,-951 153,-970 277,-970 277,-951 153,-951"/>
<text text-anchor="start" x="196" y="-958.5" font-family="Helvetica,sans-Serif" font-size="10.00"> Server </text>
<polygon fill="none" stroke="black" points="153,-933 153,-951 277,-951 277,-933 153,-933"/>
<text text-anchor="start" x="157" y="-940" font-family="Helvetica,sans-Serif" font-size="10.00"> &#160;</text>
<polygon fill="none" stroke="black" points="153,-903 153,-933 277,-933 277,-903 153,-903"/>
<text text-anchor="start" x="157" y="-922" font-family="Helvetica,sans-Serif" font-size="10.00"> + Server() </text>
<text text-anchor="start" x="157" y="-910" font-family="Helvetica,sans-Serif" font-size="10.00"> + main(args : String[]) </text>
</a>
</g>
<!-- c11 -->
<g id="node12" class="node"><title>c11</title>
<a xlink:href="null" xlink:title="&lt;TABLE&gt;">
<polygon fill="none" stroke="black" points="554,-1025 554,-1044 872,-1044 872,-1025 554,-1025"/>
<text text-anchor="start" x="683" y="-1032.5" font-family="Helvetica,sans-Serif" font-size="10.00"> RSSServlet </text>
<polygon fill="none" stroke="black" points="554,-1007 554,-1025 872,-1025 872,-1007 554,-1007"/>
<text text-anchor="start" x="558" y="-1014" font-family="Helvetica,sans-Serif" font-size="10.00"> &#160;</text>
<polygon fill="none" stroke="black" points="554,-977 554,-1007 872,-1007 872,-977 554,-977"/>
<text text-anchor="start" x="558" y="-996" font-family="Helvetica,sans-Serif" font-size="10.00"> + RSSServlet() </text>
<text text-anchor="start" x="558" y="-984" font-family="Helvetica,sans-Serif" font-size="10.00"> # doGet(req : HttpServletRequest, resp : HttpServletResponse) </text>
</a>
</g>
<!-- c12 -->
<g id="node13" class="node"><title>c12</title>
<a xlink:href="null" xlink:title="&lt;TABLE&gt;">
<polygon fill="none" stroke="black" points="62,-846 62,-877 369,-877 369,-846 62,-846"/>
<text text-anchor="start" x="185" y="-865.5" font-family="Helvetica,sans-Serif" font-size="10.00"> «interface» </text>
<text text-anchor="start" x="146.5" y="-853" font-family="Helvetica,sans-Serif" font-size="10.00"> JUnitBenchmarkWebService </text>
<polygon fill="none" stroke="black" points="62,-828 62,-846 369,-846 369,-828 62,-828"/>
<text text-anchor="start" x="66" y="-835" font-family="Helvetica,sans-Serif" font-size="10.00"> &#160;</text>
<polygon fill="none" stroke="black" points="62,-774 62,-828 369,-828 369,-774 62,-774"/>
<text text-anchor="start" x="66" y="-817" font-family="Helvetica,sans-Serif" font-size="10.00"> + enqueueBenchmark(path : String, classname : String) : int </text>
<text text-anchor="start" x="66" y="-805" font-family="Helvetica,sans-Serif" font-size="10.00"> + isDone(token : int) : boolean </text>
<text text-anchor="start" x="66" y="-793" font-family="Helvetica,sans-Serif" font-size="10.00"> + getResult(token : int) : BenchmarkResult </text>
<text text-anchor="start" x="66" y="-781" font-family="Helvetica,sans-Serif" font-size="10.00"> + getResultAsXML(token : int) : String </text>
</a>
</g>
<!-- c12&#45;&gt;c9 -->
<g id="edge12" class="edge"><title>c12:p&#45;&gt;c9:p</title>
<path fill="none" stroke="black" stroke-dasharray="5,2" d="M378.667,-826C429.759,-826 486.354,-826 538.187,-826"/>
<polygon fill="none" stroke="black" points="378.525,-822.5 368.525,-826 378.525,-829.5 378.525,-822.5"/>
</g>
<!-- c13 -->
<g id="node14" class="node"><title>c13</title>
<a xlink:href="null" xlink:title="&lt;TABLE&gt;">
<polygon fill="none" stroke="black" points="134,-1111 134,-1130 297,-1130 297,-1111 134,-1111"/>
<text text-anchor="start" x="170" y="-1118.5" font-family="Helvetica,sans-Serif" font-size="10.00"> DemoBenchmark </text>
<polygon fill="none" stroke="black" points="134,-1093 134,-1111 297,-1111 297,-1093 134,-1093"/>
<text text-anchor="start" x="138" y="-1100" font-family="Helvetica,sans-Serif" font-size="10.00"> + benchmarkRun : MethodRule </text>
<polygon fill="none" stroke="black" points="134,-1051 134,-1093 297,-1093 297,-1051 134,-1051"/>
<text text-anchor="start" x="138" y="-1082" font-family="Helvetica,sans-Serif" font-size="10.00"> + DemoBenchmark() </text>
<text text-anchor="start" x="138" y="-1070" font-family="Helvetica,sans-Serif" font-size="10.00"> + twentyMillis() </text>
<text text-anchor="start" x="138" y="-1058" font-family="Helvetica,sans-Serif" font-size="10.00"> + twohundredMillis() </text>
</a>
</g>
<!-- c14 -->
<g id="node15" class="node"><title>c14</title>
<a xlink:href="null" xlink:title="&lt;TABLE&gt;">
<polygon fill="none" stroke="black" points="39,-1300 39,-1319 392,-1319 392,-1300 39,-1300"/>
<text text-anchor="start" x="170.5" y="-1307.5" font-family="Helvetica,sans-Serif" font-size="10.00"> BenchmarkResult </text>
<polygon fill="none" stroke="black" points="39,-1258 39,-1300 392,-1300 392,-1258 39,-1258"/>
<text text-anchor="start" x="43" y="-1289" font-family="Helvetica,sans-Serif" font-size="10.00"> &#45; className : String </text>
<text text-anchor="start" x="43" y="-1277" font-family="Helvetica,sans-Serif" font-size="10.00"> &#45; date : Calendar </text>
<text text-anchor="start" x="43" y="-1265" font-family="Helvetica,sans-Serif" font-size="10.00"> &#45; methods : List&lt;BenchmarkResult.BenchmarkMethod&gt; </text>
<polygon fill="none" stroke="black" points="39,-1156 39,-1258 392,-1258 392,-1156 39,-1156"/>
<text text-anchor="start" x="43" y="-1247" font-family="Helvetica,sans-Serif" font-size="10.00"> + BenchmarkResult() </text>
<text text-anchor="start" x="43" y="-1235" font-family="Helvetica,sans-Serif" font-size="10.00"> + getClassName() : String </text>
<text text-anchor="start" x="43" y="-1223" font-family="Helvetica,sans-Serif" font-size="10.00"> + setClassName(className : String) </text>
<text text-anchor="start" x="43" y="-1211" font-family="Helvetica,sans-Serif" font-size="10.00"> + getDate() : Calendar </text>
<text text-anchor="start" x="43" y="-1199" font-family="Helvetica,sans-Serif" font-size="10.00"> + setDate(date : Calendar) </text>
<text text-anchor="start" x="43" y="-1187" font-family="Helvetica,sans-Serif" font-size="10.00"> + getMethods() : List&lt;BenchmarkResult.BenchmarkMethod&gt; </text>
<text text-anchor="start" x="43" y="-1175" font-family="Helvetica,sans-Serif" font-size="10.00"> + setMethods(methods : List&lt;BenchmarkResult.BenchmarkMethod&gt;) </text>
<text text-anchor="start" x="43" y="-1163" font-family="Helvetica,sans-Serif" font-size="10.00"> + toXML() : String </text>
</a>
</g>
<!-- c15 -->
<g id="node16" class="node"><title>c15</title>
<a xlink:href="null" xlink:title="&lt;TABLE&gt;">
<polygon fill="none" stroke="black" points="91,-1813 91,-1832 340,-1832 340,-1813 91,-1813"/>
<text text-anchor="start" x="167" y="-1820.5" font-family="Helvetica,sans-Serif" font-size="10.00"> BenchmarkMethod </text>
<polygon fill="none" stroke="black" points="91,-1663 91,-1813 340,-1813 340,-1663 91,-1663"/>
<text text-anchor="start" x="95" y="-1802" font-family="Helvetica,sans-Serif" font-size="10.00"> &#45; methodName : String </text>
<text text-anchor="start" x="95" y="-1790" font-family="Helvetica,sans-Serif" font-size="10.00"> &#45; concurrency : int </text>
<text text-anchor="start" x="95" y="-1778" font-family="Helvetica,sans-Serif" font-size="10.00"> &#45; roundAvg : double </text>
<text text-anchor="start" x="95" y="-1766" font-family="Helvetica,sans-Serif" font-size="10.00"> &#45; roundStddev : double </text>
<text text-anchor="start" x="95" y="-1754" font-family="Helvetica,sans-Serif" font-size="10.00"> &#45; gcInvocations : int </text>
<text text-anchor="start" x="95" y="-1742" font-family="Helvetica,sans-Serif" font-size="10.00"> &#45; gcTime : double </text>
<text text-anchor="start" x="95" y="-1730" font-family="Helvetica,sans-Serif" font-size="10.00"> &#45; gcAverage : double </text>
<text text-anchor="start" x="95" y="-1718" font-family="Helvetica,sans-Serif" font-size="10.00"> &#45; gcStddev : double </text>
<text text-anchor="start" x="95" y="-1706" font-family="Helvetica,sans-Serif" font-size="10.00"> &#45; benchmarkRounds : int </text>
<text text-anchor="start" x="95" y="-1694" font-family="Helvetica,sans-Serif" font-size="10.00"> &#45; warmupRounds : int </text>
<text text-anchor="start" x="95" y="-1682" font-family="Helvetica,sans-Serif" font-size="10.00"> &#45; warmupTime : long </text>
<text text-anchor="start" x="95" y="-1670" font-family="Helvetica,sans-Serif" font-size="10.00"> &#45; benchmarkTime : long </text>
<polygon fill="none" stroke="black" points="91,-1345 91,-1663 340,-1663 340,-1345 91,-1345"/>
<text text-anchor="start" x="95" y="-1652" font-family="Helvetica,sans-Serif" font-size="10.00"> + BenchmarkResult.BenchmarkMethod() </text>
<text text-anchor="start" x="95" y="-1640" font-family="Helvetica,sans-Serif" font-size="10.00"> + getMethodName() : String </text>
<text text-anchor="start" x="95" y="-1628" font-family="Helvetica,sans-Serif" font-size="10.00"> + setMethodName(methodName : String) </text>
<text text-anchor="start" x="95" y="-1616" font-family="Helvetica,sans-Serif" font-size="10.00"> + getConcurrency() : int </text>
<text text-anchor="start" x="95" y="-1604" font-family="Helvetica,sans-Serif" font-size="10.00"> + setConcurrency(concurrency : int) </text>
<text text-anchor="start" x="95" y="-1592" font-family="Helvetica,sans-Serif" font-size="10.00"> + getRoundAvg() : double </text>
<text text-anchor="start" x="95" y="-1580" font-family="Helvetica,sans-Serif" font-size="10.00"> + setRoundAvg(roundAvg : double) </text>
<text text-anchor="start" x="95" y="-1568" font-family="Helvetica,sans-Serif" font-size="10.00"> + getRoundStddev() : double </text>
<text text-anchor="start" x="95" y="-1556" font-family="Helvetica,sans-Serif" font-size="10.00"> + setRoundStddev(roundStddev : double) </text>
<text text-anchor="start" x="95" y="-1544" font-family="Helvetica,sans-Serif" font-size="10.00"> + getGcInvocations() : int </text>
<text text-anchor="start" x="95" y="-1532" font-family="Helvetica,sans-Serif" font-size="10.00"> + setGcInvocations(gcInvocations : int) </text>
<text text-anchor="start" x="95" y="-1520" font-family="Helvetica,sans-Serif" font-size="10.00"> + getGcTime() : double </text>
<text text-anchor="start" x="95" y="-1508" font-family="Helvetica,sans-Serif" font-size="10.00"> + setGcTime(gcTime : double) </text>
<text text-anchor="start" x="95" y="-1496" font-family="Helvetica,sans-Serif" font-size="10.00"> + getGcAverage() : double </text>
<text text-anchor="start" x="95" y="-1484" font-family="Helvetica,sans-Serif" font-size="10.00"> + setGcAverage(gcAverage : double) </text>
<text text-anchor="start" x="95" y="-1472" font-family="Helvetica,sans-Serif" font-size="10.00"> + getGcStddev() : double </text>
<text text-anchor="start" x="95" y="-1460" font-family="Helvetica,sans-Serif" font-size="10.00"> + setGcStddev(gcStddev : double) </text>
<text text-anchor="start" x="95" y="-1448" font-family="Helvetica,sans-Serif" font-size="10.00"> + getBenchmarkRounds() : int </text>
<text text-anchor="start" x="95" y="-1436" font-family="Helvetica,sans-Serif" font-size="10.00"> + setBenchmarkRounds(benchmarkRounds : int) </text>
<text text-anchor="start" x="95" y="-1424" font-family="Helvetica,sans-Serif" font-size="10.00"> + getWarmupRounds() : int </text>
<text text-anchor="start" x="95" y="-1412" font-family="Helvetica,sans-Serif" font-size="10.00"> + setWarmupRounds(warmupRounds : int) </text>
<text text-anchor="start" x="95" y="-1400" font-family="Helvetica,sans-Serif" font-size="10.00"> + getWarmupTime() : long </text>
<text text-anchor="start" x="95" y="-1388" font-family="Helvetica,sans-Serif" font-size="10.00"> + setWarmupTime(warmupTime : long) </text>
<text text-anchor="start" x="95" y="-1376" font-family="Helvetica,sans-Serif" font-size="10.00"> + getBenchmarkTime() : long </text>
<text text-anchor="start" x="95" y="-1364" font-family="Helvetica,sans-Serif" font-size="10.00"> + setBenchmarkTime(benchmarkTime : long) </text>
<text text-anchor="start" x="95" y="-1352" font-family="Helvetica,sans-Serif" font-size="10.00"> + toXML() : String </text>
</a>
</g>
<!-- c16 -->
<g id="node17" class="node"><title>c16</title>
<a xlink:href="null" xlink:title="&lt;TABLE&gt;">
<polygon fill="none" stroke="black" points="101,-1954 101,-1973 329,-1973 329,-1954 101,-1954"/>
<text text-anchor="start" x="178" y="-1961.5" font-family="Helvetica,sans-Serif" font-style="oblique" font-size="10.00"> Predicate&lt;T&gt; </text>
<polygon fill="none" stroke="black" points="101,-1936 101,-1954 329,-1954 329,-1936 101,-1936"/>
<text text-anchor="start" x="105" y="-1943" font-family="Helvetica,sans-Serif" font-size="10.00"> &#160;</text>
<polygon fill="none" stroke="black" points="101,-1858 101,-1936 329,-1936 329,-1858 101,-1858"/>
<text text-anchor="start" x="105" y="-1925" font-family="Helvetica,sans-Serif" font-size="10.00"> + Predicate() </text>
<text text-anchor="start" x="105" y="-1913" font-family="Helvetica,sans-Serif" font-style="oblique" font-size="10.00"> + apply(obj : T) : boolean </text>
<text text-anchor="start" x="105" y="-1901" font-family="Helvetica,sans-Serif" font-size="10.00"> + and(other : Predicate&lt;T&gt;) : Predicate&lt;T&gt; </text>
<text text-anchor="start" x="105" y="-1889" font-family="Helvetica,sans-Serif" font-size="10.00"> + or(other : Predicate&lt;T&gt;) : Predicate&lt;T&gt; </text>
<text text-anchor="start" x="105" y="-1877" font-family="Helvetica,sans-Serif" font-size="10.00"> + not() : Predicate&lt;T&gt; </text>
<text text-anchor="start" x="105" y="-1865" font-family="Helvetica,sans-Serif" font-size="10.00"> + filter(items : Collection&lt;T&gt;) : List&lt;T&gt; </text>
</a>
</g>
<!-- c17 -->
<g id="node18" class="node"><title>c17</title>
<a xlink:href="http://java.sun.com/j2se/1.4.2/docs/api/java/lang/RuntimeException.html" xlink:title="&lt;TABLE&gt;">
</a>
<a xlink:href="http://java.sun.com/j2se/1.4.2/docs/api/java/lang/RuntimeException.html" xlink:title="java.lang.RuntimeException">
<polygon fill="none" stroke="black" points="9,-275 9,-294 422,-294 422,-275 9,-275"/>
<text text-anchor="start" x="169.5" y="-282.5" font-family="Helvetica,sans-Serif" font-size="10.00"> RuntimeException </text>
<polygon fill="none" stroke="black" points="9,-257 9,-275 422,-275 422,-257 9,-257"/>
<text text-anchor="start" x="13" y="-264" font-family="Helvetica,sans-Serif" font-size="10.00"> ~ serialVersionUID : long </text>
<polygon fill="none" stroke="black" points="9,-191 9,-257 422,-257 422,-191 9,-191"/>
<text text-anchor="start" x="13" y="-246" font-family="Helvetica,sans-Serif" font-size="10.00"> + RuntimeException() </text>
<text text-anchor="start" x="13" y="-234" font-family="Helvetica,sans-Serif" font-size="10.00"> + RuntimeException(arg0 : String) </text>
<text text-anchor="start" x="13" y="-222" font-family="Helvetica,sans-Serif" font-size="10.00"> + RuntimeException(arg0 : String, arg1 : Throwable) </text>
<text text-anchor="start" x="13" y="-210" font-family="Helvetica,sans-Serif" font-size="10.00"> + RuntimeException(arg0 : Throwable) </text>
<text text-anchor="start" x="13" y="-198" font-family="Helvetica,sans-Serif" font-size="10.00"> # RuntimeException(arg0 : String, arg1 : Throwable, arg2 : boolean, arg3 : boolean) </text>
</a>
<a xlink:href="http://java.sun.com/j2se/1.4.2/docs/api/java/lang/RuntimeException.html" xlink:title="&lt;TABLE&gt;">
</a>
</g>
<!-- c17&#45;&gt;c1 -->
<g id="edge2" class="edge"><title>c17:p&#45;&gt;c1:p</title>
<path fill="none" stroke="black" d="M431.678,-257.784C477.213,-260.906 524.226,-264.128 566.436,-267.022"/>
<polygon fill="none" stroke="black" points="431.897,-254.291 421.681,-257.099 431.418,-261.275 431.897,-254.291"/>
</g>
<!-- c17&#45;&gt;c2 -->
<g id="edge4" class="edge"><title>c17:p&#45;&gt;c2:p</title>
<path fill="none" stroke="black" d="M431.895,-222.542C484.861,-217.523 539.815,-212.316 586.871,-207.857"/>
<polygon fill="none" stroke="black" points="431.306,-219.082 421.681,-223.51 431.967,-226.051 431.306,-219.082"/>
</g>
<!-- c18 -->
<g id="node22" class="node"><title>c18</title>
<a xlink:href="http://java.sun.com/j2se/1.4.2/docs/api/java/util/concurrent/Callable.html" xlink:title="&lt;TABLE&gt;">
</a>
<a xlink:href="http://java.sun.com/j2se/1.4.2/docs/api/java/util/concurrent/Callable.html" xlink:title="java.util.concurrent.Callable">
<polygon fill="none" stroke="black" points="177,-402 177,-433 253,-433 253,-402 177,-402"/>
<text text-anchor="start" x="184.5" y="-421.5" font-family="Helvetica,sans-Serif" font-size="10.00"> «interface» </text>
<text text-anchor="start" x="181.5" y="-409" font-family="Helvetica,sans-Serif" font-size="10.00"> Callable&lt;V&gt; </text>
<polygon fill="none" stroke="black" points="177,-384 177,-402 253,-402 253,-384 177,-384"/>
<text text-anchor="start" x="181" y="-391" font-family="Helvetica,sans-Serif" font-size="10.00"> &#160;</text>
<polygon fill="none" stroke="black" points="177,-366 177,-384 253,-384 253,-366 177,-366"/>
<text text-anchor="start" x="181" y="-373" font-family="Helvetica,sans-Serif" font-size="10.00"> + call() : V </text>
</a>
<a xlink:href="http://java.sun.com/j2se/1.4.2/docs/api/java/util/concurrent/Callable.html" xlink:title="&lt;TABLE&gt;">
</a>
</g>
<!-- c18&#45;&gt;c4 -->
<g id="edge8" class="edge"><title>c18:p&#45;&gt;c4:p</title>
<path fill="none" stroke="black" stroke-dasharray="5,2" d="M263.326,-400C312.724,-400 393.991,-400 473.889,-400"/>
<polygon fill="none" stroke="black" points="263.281,-396.5 253.281,-400 263.281,-403.5 263.281,-396.5"/>
</g>
<!-- c19 -->
<g id="node26" class="node"><title>c19</title>
<a xlink:href="http://java.sun.com/j2se/1.4.2/docs/api//HttpServlet.html" xlink:title="HttpServlet">
<polygon fill="none" stroke="black" points="180,-1001 180,-1020 250,-1020 250,-1001 180,-1001"/>
<text text-anchor="start" x="184.5" y="-1008.5" font-family="Helvetica,sans-Serif" font-size="10.00"> HttpServlet </text>
</a>
</g>
<!-- c19&#45;&gt;c11 -->
<g id="edge14" class="edge"><title>c19:p&#45;&gt;c11:p</title>
<path fill="none" stroke="black" d="M260.454,-1011C325.932,-1011 451.594,-1011 553.761,-1011"/>
<polygon fill="none" stroke="black" points="260.092,-1007.5 250.092,-1011 260.092,-1014.5 260.092,-1007.5"/>
</g>
</g>
</svg>
